<svg xmlns="http://www.w3.org/2000/svg" xmlns:xlink="http://www.w3.org/1999/xlink" version="1.1"  viewBox="0 0 256 256" xml:space="preserve">

<defs>
</defs>
<g style="stroke: none; stroke-width: 0; stroke-dasharray: none; stroke-linecap: butt; stroke-linejoin: miter; stroke-miterlimit: 10; fill: currentColor; fill-rule: nonzero; opacity: 1;" transform="translate(1.4065934065934016 1.4065934065934016) scale(2.81 2.81)" >
	<path d="M 60.489 36.515 c -0.553 0 -1 0.448 -1 1 c 0 1.879 -0.363 3.72 -1.079 5.47 c -0.329 0.806 -0.714 1.56 -1.144 2.241 c -2.726 4.321 -4.406 9.104 -4.86 13.833 c -0.023 0.246 -0.229 0.432 -0.478 0.432 h -0.301 H 38.372 h -0.3 c -0.552 0 -1 0.447 -1 1 c 0 0.28 0.116 0.531 0.3 0.712 v 3.717 c 0 2.235 1.819 4.055 4.055 4.055 h 7.146 c 2.235 0 4.055 -1.819 4.055 -4.055 V 61.38 c 0.951 -0.278 1.67 -1.097 1.769 -2.131 c 0.425 -4.418 2.002 -8.898 4.562 -12.956 c 0.491 -0.779 0.931 -1.638 1.304 -2.551 c 0.814 -1.992 1.228 -4.087 1.228 -6.227 C 61.489 36.962 61.042 36.515 60.489 36.515 z M 50.628 64.92 c 0 1.133 -0.922 2.055 -2.055 2.055 h -7.146 c -1.133 0 -2.055 -0.922 -2.055 -2.055 v -3.43 h 11.256 V 64.92 z" style="stroke: none; stroke-width: 1; stroke-dasharray: none; stroke-linecap: butt; stroke-linejoin: miter; stroke-miterlimit: 10; fill: currentColor; fill-rule: nonzero; opacity: 1;" transform=" matrix(1 0 0 1 0 0) " stroke-linecap="round" />
	<path d="M 76.885 13.279 c -0.025 -0.032 -0.036 -0.07 -0.066 -0.099 c -0.029 -0.029 -0.067 -0.041 -0.099 -0.066 C 68.579 5.015 57.365 0 45 0 C 20.187 0 0 20.187 0 45 c 0 12.365 5.015 23.579 13.115 31.721 c 0.025 0.032 0.036 0.07 0.066 0.099 c 0.029 0.029 0.067 0.041 0.099 0.066 C 21.421 84.985 32.635 90 45 90 c 24.813 0 45 -20.187 45 -45 C 90 32.635 84.985 21.421 76.885 13.279 z M 45 2 c 11.496 0 21.944 4.544 29.667 11.918 L 59.29 29.295 c -2.921 -5.063 -8.384 -8.27 -14.29 -8.27 c -9.092 0 -16.489 7.397 -16.489 16.489 c 0 2.14 0.413 4.235 1.228 6.228 c 0.375 0.916 0.813 1.774 1.303 2.551 c 1.558 2.471 2.731 5.07 3.521 7.73 L 13.918 74.667 C 6.544 66.944 2 56.496 2 45 C 2 21.29 21.29 2 45 2 z M 36.154 52.431 c -0.829 -2.477 -1.964 -4.896 -3.421 -7.206 c -0.428 -0.679 -0.813 -1.433 -1.144 -2.241 c -0.716 -1.75 -1.079 -3.591 -1.079 -5.47 c 0 -7.989 6.5 -14.489 14.489 -14.489 c 5.372 0 10.325 3.02 12.817 7.743 L 36.154 52.431 z M 45 88 c -11.496 0 -21.945 -4.544 -29.668 -11.919 L 59.78 31.634 c 0.001 -0.001 0.002 -0.002 0.003 -0.003 l 16.298 -16.298 C 83.456 23.055 88 33.504 88 45 C 88 68.71 68.71 88 45 88 z" style="stroke: none; stroke-width: 1; stroke-dasharray: none; stroke-linecap: butt; stroke-linejoin: miter; stroke-miterlimit: 10; fill: currentColor; fill-rule: nonzero; opacity: 1;" transform=" matrix(1 0 0 1 0 0) " stroke-linecap="round" />
</g>
</svg>