<svg xmlns="http://www.w3.org/2000/svg" xmlns:xlink="http://www.w3.org/1999/xlink" version="1.1" viewBox="0 0 256 256" xml:space="preserve">

<defs>
</defs>
<g style="stroke: none; stroke-width: 0; stroke-dasharray: none; stroke-linecap: butt; stroke-linejoin: miter; stroke-miterlimit: 10; fill: currentColor; fill-rule: nonzero; opacity: 1;" transform="translate(1.4065934065934016 1.4065934065934016) scale(2.81 2.81)" >
	<path d="M 48.573 73.757 h -7.146 c -2.236 0 -4.055 -1.819 -4.055 -4.056 v -4.43 c 0 -0.553 0.448 -1 1 -1 h 13.256 c 0.553 0 1 0.447 1 1 v 4.43 C 52.628 71.938 50.809 73.757 48.573 73.757 z M 39.372 66.271 v 3.43 c 0 1.134 0.922 2.056 2.055 2.056 h 7.146 c 1.133 0 2.055 -0.922 2.055 -2.056 v -3.43 H 39.372 z" style="stroke: none; stroke-width: 1; stroke-dasharray: none; stroke-linecap: butt; stroke-linejoin: miter; stroke-miterlimit: 10; fill: currentColor fill-rule: nonzero; opacity: 1;" transform=" matrix(1 0 0 1 0 0) " stroke-linecap="round" />
	<path d="M 51.929 66.271 H 38.071 c -1.285 0 -2.346 -0.963 -2.469 -2.24 c -0.423 -4.416 -2 -8.896 -4.561 -12.957 c -0.489 -0.774 -0.928 -1.633 -1.303 -2.55 c -0.815 -1.993 -1.228 -4.088 -1.228 -6.228 c 0 -9.092 7.397 -16.49 16.489 -16.49 c 9.092 0 16.489 7.397 16.489 16.49 c 0 2.14 -0.413 4.234 -1.228 6.228 c -0.374 0.915 -0.813 1.772 -1.304 2.551 c -2.56 4.058 -4.137 8.538 -4.562 12.956 C 54.275 65.308 53.214 66.271 51.929 66.271 z M 45 27.807 c -7.989 0 -14.489 6.5 -14.489 14.49 c 0 1.879 0.363 3.719 1.079 5.47 c 0.331 0.81 0.716 1.563 1.144 2.24 c 2.727 4.325 4.407 9.108 4.86 13.833 c 0.023 0.246 0.229 0.432 0.478 0.432 h 13.857 c 0.249 0 0.454 -0.186 0.478 -0.431 c 0.454 -4.729 2.135 -9.512 4.86 -13.833 c 0.429 -0.68 0.813 -1.434 1.144 -2.241 c 0.716 -1.751 1.079 -3.591 1.079 -5.47 C 59.489 34.307 52.989 27.807 45 27.807 z" style="stroke: none; stroke-width: 1; stroke-dasharray: none; stroke-linecap: butt; stroke-linejoin: miter; stroke-miterlimit: 10; fill: currentColor fill-rule: nonzero; opacity: 1;" transform=" matrix(1 0 0 1 0 0) " stroke-linecap="round" />
	<path d="M 73.5 42.743 h -6.717 c -0.553 0 -1 -0.448 -1 -1 s 0.447 -1 1 -1 H 73.5 c 0.553 0 1 0.448 1 1 S 74.053 42.743 73.5 42.743 z" style="stroke: none; stroke-width: 1; stroke-dasharray: none; stroke-linecap: butt; stroke-linejoin: miter; stroke-miterlimit: 10; fill: currentColor fill-rule: nonzero; opacity: 1;" transform=" matrix(1 0 0 1 0 0) " stroke-linecap="round" />
	<path d="M 23.217 42.743 H 16.5 c -0.552 0 -1 -0.448 -1 -1 s 0.448 -1 1 -1 h 6.717 c 0.552 0 1 0.448 1 1 S 23.769 42.743 23.217 42.743 z" style="stroke: none; stroke-width: 1; stroke-dasharray: none; stroke-linecap: butt; stroke-linejoin: miter; stroke-miterlimit: 10; fill: currentColor fill-rule: nonzero; opacity: 1;" transform=" matrix(1 0 0 1 0 0) " stroke-linecap="round" />
	<path d="M 45 20.96 c -0.552 0 -1 -0.448 -1 -1 v -6.717 c 0 -0.552 0.448 -1 1 -1 s 1 0.448 1 1 v 6.717 C 46 20.512 45.552 20.96 45 20.96 z" style="stroke: none; stroke-width: 1; stroke-dasharray: none; stroke-linecap: butt; stroke-linejoin: miter; stroke-miterlimit: 10; fill: currentColor fill-rule: nonzero; opacity: 1;" transform=" matrix(1 0 0 1 0 0) " stroke-linecap="round" />
	<path d="M 65.152 62.896 c -0.256 0 -0.512 -0.098 -0.707 -0.293 l -4.749 -4.749 c -0.391 -0.391 -0.391 -1.023 0 -1.414 s 1.023 -0.391 1.414 0 l 4.749 4.749 c 0.391 0.391 0.391 1.023 0 1.414 C 65.664 62.798 65.408 62.896 65.152 62.896 z" style="stroke: none; stroke-width: 1; stroke-dasharray: none; stroke-linecap: butt; stroke-linejoin: miter; stroke-miterlimit: 10; fill: currentColor fill-rule: nonzero; opacity: 1;" transform=" matrix(1 0 0 1 0 0) " stroke-linecap="round" />
	<path d="M 29.597 27.34 c -0.256 0 -0.512 -0.098 -0.707 -0.293 l -4.75 -4.75 c -0.391 -0.391 -0.391 -1.023 0 -1.414 s 1.023 -0.391 1.414 0 l 4.75 4.75 c 0.391 0.391 0.391 1.023 0 1.414 C 30.109 27.243 29.853 27.34 29.597 27.34 z" style="stroke: none; stroke-width: 1; stroke-dasharray: none; stroke-linecap: butt; stroke-linejoin: miter; stroke-miterlimit: 10; fill: currentColor fill-rule: nonzero; opacity: 1;" transform=" matrix(1 0 0 1 0 0) " stroke-linecap="round" />
	<path d="M 60.403 27.34 c -0.256 0 -0.512 -0.098 -0.707 -0.293 c -0.391 -0.391 -0.391 -1.023 0 -1.414 l 4.749 -4.75 c 0.391 -0.391 1.023 -0.391 1.414 0 s 0.391 1.023 0 1.414 l -4.749 4.75 C 60.915 27.243 60.659 27.34 60.403 27.34 z" style="stroke: none; stroke-width: 1; stroke-dasharray: none; stroke-linecap: butt; stroke-linejoin: miter; stroke-miterlimit: 10; fill: currentColor fill-rule: nonzero; opacity: 1;" transform=" matrix(1 0 0 1 0 0) " stroke-linecap="round" />
	<path d="M 24.848 62.896 c -0.256 0 -0.512 -0.098 -0.707 -0.293 c -0.391 -0.391 -0.391 -1.023 0 -1.414 l 4.75 -4.749 c 0.391 -0.391 1.023 -0.391 1.414 0 s 0.391 1.023 0 1.414 l -4.75 4.749 C 25.359 62.798 25.104 62.896 24.848 62.896 z" style="stroke: none; stroke-width: 1; stroke-dasharray: none; stroke-linecap: butt; stroke-linejoin: miter; stroke-miterlimit: 10; fill: currentColor fill-rule: nonzero; opacity: 1;" transform=" matrix(1 0 0 1 0 0) " stroke-linecap="round" />
	<path d="M 45 90 C 20.187 90 0 69.813 0 45 C 0 20.187 20.187 0 45 0 c 24.813 0 45 20.187 45 45 C 90 69.813 69.813 90 45 90 z M 45 2 C 21.29 2 2 21.29 2 45 c 0 23.71 19.29 43 43 43 c 23.71 0 43 -19.29 43 -43 C 88 21.29 68.71 2 45 2 z" style="stroke: none; stroke-width: 1; stroke-dasharray: none; stroke-linecap: butt; stroke-linejoin: miter; stroke-miterlimit: 10; fill: currentColor fill-rule: nonzero; opacity: 1;" transform=" matrix(1 0 0 1 0 0) " stroke-linecap="round" />
</g>
</svg>